<svg fill="none" stroke="none" viewBox="0 0 48 48" xmlns="http://www.w3.org/2000/svg">
  <path d="m 28.548952,2.8481931 -8.956084,-0.052564 -5.762795,1.110063 0.636433,5.3468677 -2.839293,0.5141 -3.0084483,1.2600982 0.6699049,2.855423 3.4391504,-1.496277 2.365282,-0.650674 15.324958,-1.014478 3.805029,1.186777 2.68256,1.369279 L 38.3247,10.654705 35.506511,9.2639434 32.858401,8.5150387 33.736833,4.1332693 Z M 26.738673,13.565473 c 0,0 -4.209122,0.661434 -5.586383,0.6332 -1.377262,-0.02822 -4.971537,0.371661 -4.971537,0.371661 l -5.210136,2.865458 -0.02065,2.163434 c 0,0 -1.0076767,2.782818 -1.397168,3.60878 -0.3895162,0.825964 -1.3283444,2.530507 -1.3283444,2.530507 l 2.0051334,1.078275 c 0,0 0.631161,1.398178 0.784617,2.679629 1.287282,10.749582 14.797481,16.205016 14.797481,16.205016 0,0 -7.46081,-7.251501 -3.512298,-12.805009 3.57262,-5.024822 5.834158,-4.882063 5.834158,-4.882063 l 9.23646,-2.25979 C 36.062963,22.40452 34.664493,20.142757 33.485922,15.24024 l -3.227945,-1.486643 z m 0.376186,2.782963 4.252861,2.311566 0.07743,4.577224 -4.248231,2.18626 -4.42568,-1.94872 -0.216656,-4.580624 z m -11.43795,1.159086 3.4639,1.78625 0.358459,3.966006 -3.64236,3.047908 -3.728814,-2.491338 0.480253,-4.120299 z m 21.751193,10.949318 -5.78139,1.401757 c 0,0 -3.317728,2.167729 -4.173155,3.266945 -0.855428,1.099217 -1.516468,3.051289 -1.516468,3.051291 l 2.828752,-0.438194 z" />
  <style>
    path { fill: #1E1E2E; }
    @media (prefers-color-scheme: dark) {
      path { fill: #CDD6F4; }
    }
  </style>
</svg>